<svg width="24" height="24" viewBox="0 0 24 24" fill="none" xmlns="http://www.w3.org/2000/svg">
    <rect width="24" height="24" rx="4" fill="#4173F3"/>
    <path d="M12 8.66667V6H5V18H19V8.66667H12ZM7.8 16.6667H6.4V15.3333H7.8V16.6667ZM7.8 14H6.4V12.6667H7.8V14ZM7.8 11.3333H6.4V10H7.8V11.3333ZM7.8 8.66667H6.4V7.33333H7.8V8.66667ZM10.6 16.6667H9.2V15.3333H10.6V16.6667ZM10.6 14H9.2V12.6667H10.6V14ZM10.6 11.3333H9.2V10H10.6V11.3333ZM10.6 8.66667H9.2V7.33333H10.6V8.66667ZM17.6 16.6667H12V15.3333H13.4V14H12V12.6667H13.4V11.3333H12V10H17.6V16.6667ZM16.2 11.3333H14.8V12.6667H16.2V11.3333ZM16.2 14H14.8V15.3333H16.2V14Z" fill="white"/>
</svg>    