<svg width="24" height="24" viewBox="0 0 24 24" fill="none" xmlns="http://www.w3.org/2000/svg">
    <rect width="24" height="24" rx="4" fill="#4173F3"/>
    <path d="M12 5C8.13444 5 5 8.13444 5 12C5 15.8656 8.13444 19 12 19C12.6456 19 13.1667 18.4789 13.1667 17.8333C13.1667 17.53 13.05 17.2578 12.8633 17.0478C12.6844 16.8456 12.5678 16.5733 12.5678 16.2778C12.5678 15.6322 13.0889 15.1111 13.7344 15.1111H15.1111C17.2578 15.1111 19 13.3689 19 11.2222C19 7.78444 15.8656 5 12 5ZM7.72222 12C7.07667 12 6.55556 11.4789 6.55556 10.8333C6.55556 10.1878 7.07667 9.66667 7.72222 9.66667C8.36778 9.66667 8.88889 10.1878 8.88889 10.8333C8.88889 11.4789 8.36778 12 7.72222 12ZM10.0556 8.88889C9.41 8.88889 8.88889 8.36778 8.88889 7.72222C8.88889 7.07667 9.41 6.55556 10.0556 6.55556C10.7011 6.55556 11.2222 7.07667 11.2222 7.72222C11.2222 8.36778 10.7011 8.88889 10.0556 8.88889ZM13.9444 8.88889C13.2989 8.88889 12.7778 8.36778 12.7778 7.72222C12.7778 7.07667 13.2989 6.55556 13.9444 6.55556C14.59 6.55556 15.1111 7.07667 15.1111 7.72222C15.1111 8.36778 14.59 8.88889 13.9444 8.88889ZM16.2778 12C15.6322 12 15.1111 11.4789 15.1111 10.8333C15.1111 10.1878 15.6322 9.66667 16.2778 9.66667C16.9233 9.66667 17.4444 10.1878 17.4444 10.8333C17.4444 11.4789 16.9233 12 16.2778 12Z" fill="white"/>
</svg>    