<svg width="49" height="48" viewBox="0 0 49 48" fill="none" xmlns="http://www.w3.org/2000/svg">
    <rect x="0.5" width="48" height="48" rx="4" fill="#4173F3"/>
    <path d="M18.044 22.548C19.772 25.944 22.556 28.716 25.952 30.456L28.592 27.816C28.916 27.492 29.396 27.384 29.816 27.528C31.16 27.972 32.612 28.212 34.1 28.212C34.76 28.212 35.3 28.752 35.3 29.412V33.6C35.3 34.26 34.76 34.8 34.1 34.8C22.832 34.8 13.7 25.668 13.7 14.4C13.7 13.74 14.24 13.2 14.9 13.2H19.1C19.76 13.2 20.3 13.74 20.3 14.4C20.3 15.9 20.54 17.34 20.984 18.684C21.116 19.104 21.02 19.572 20.684 19.908L18.044 22.548Z" fill="white"/>
</svg>    