<svg width="24" height="24" viewBox="0 0 24 24" fill="none" xmlns="http://www.w3.org/2000/svg">
    <rect width="24" height="24" rx="4" fill="#4173F3"/>
    <path d="M16.245 9.09632L12 5L7.755 9.09632C6.585 10.2273 6 11.7354 6 13.1854C6 14.6354 6.585 16.1652 7.755 17.2962C8.925 18.4272 10.4625 19 12 19C13.5375 19 15.075 18.4272 16.245 17.2962C17.415 16.1652 18 14.6354 18 13.1854C18 11.7354 17.415 10.2273 16.245 9.09632ZM7.5 13.4464C7.5075 11.9964 7.965 11.0756 8.82 10.2563L12 7.11704L15.18 10.2926C16.035 11.1046 16.4925 11.9964 16.5 13.4464H7.5Z" fill="white"/>
</svg>    