<svg width="147" height="30" viewBox="0 0 147 30" fill="none" xmlns="http://www.w3.org/2000/svg">
    <g clip-path="url(#clip0_66_3)">
    <path d="M12.6999 29.36C10.2999 29.36 8.20657 29.0667 6.4199 28.48C4.63324 27.8933 3.2599 27.0667 2.2999 26C1.36657 24.9067 0.899902 23.64 0.899902 22.2C0.899902 20.0133 2.3799 18.92 5.3399 18.92C5.44657 20.9467 6.12657 22.48 7.3799 23.52C8.6599 24.56 10.4466 25.08 12.7399 25.08C14.6333 25.08 16.0999 24.76 17.1399 24.12C18.1799 23.4533 18.6999 22.5333 18.6999 21.36C18.6999 20.5867 18.4999 19.96 18.0999 19.48C17.6999 18.9733 17.0199 18.5333 16.0599 18.16C15.0999 17.76 13.6999 17.36 11.8599 16.96C9.24657 16.3467 7.1799 15.6667 5.6599 14.92C4.16657 14.1733 3.08657 13.28 2.4199 12.24C1.75324 11.1733 1.4199 9.85335 1.4199 8.28002C1.4199 6.76002 1.8599 5.42668 2.7399 4.28002C3.64657 3.13335 4.91324 2.24002 6.5399 1.60002C8.19324 0.960015 10.0866 0.640015 12.2199 0.640015C14.2733 0.640015 16.0999 0.920015 17.6999 1.48002C19.3266 2.01335 20.5933 2.77335 21.4999 3.76002C22.4333 4.74669 22.8999 5.88002 22.8999 7.16002C22.8999 9.13335 21.4733 10.16 18.6199 10.24C18.4599 8.40002 17.8733 7.05335 16.8599 6.20002C15.8466 5.34668 14.2999 4.92002 12.2199 4.92002C10.4333 4.92002 9.0599 5.21335 8.0999 5.80002C7.1399 6.38669 6.6599 7.21335 6.6599 8.28002C6.6599 9.02669 6.84657 9.65335 7.2199 10.16C7.59324 10.64 8.2199 11.0667 9.0999 11.44C9.9799 11.7867 11.2333 12.1467 12.8599 12.52C15.6066 13.1333 17.7799 13.8267 19.3799 14.6C20.9799 15.3467 22.1399 16.2667 22.8599 17.36C23.5799 18.4267 23.9399 19.7467 23.9399 21.32C23.9399 22.9467 23.4733 24.3733 22.5399 25.6C21.6333 26.8 20.3266 27.7333 18.6199 28.4C16.9399 29.04 14.9666 29.36 12.6999 29.36ZM45.5137 25.48C45.5137 26.7333 45.1137 27.6933 44.3137 28.36C43.5404 29.0267 42.3537 29.36 40.7537 29.36V26.96C41.1004 26.56 41.4204 26.12 41.7137 25.64L41.4737 25.48C39.767 28.0667 37.4737 29.36 34.5937 29.36C33.2337 29.36 32.007 29.0533 30.9137 28.44C29.847 27.8 28.9937 26.92 28.3537 25.8C27.7404 24.68 27.4337 23.4133 27.4337 22V11.68C27.4337 10.5867 27.8337 9.81335 28.6337 9.36002C29.4604 8.88002 30.7137 8.64002 32.3937 8.64002V21.64C32.3937 22.68 32.7137 23.5067 33.3537 24.12C33.9937 24.7333 34.9137 25.04 36.1137 25.04C37.447 25.04 38.5137 24.6267 39.3137 23.8C40.1404 22.9467 40.5537 21.8933 40.5537 20.64V11.68C40.5537 10.5867 40.9537 9.81335 41.7537 9.36002C42.5537 8.88002 43.807 8.64002 45.5137 8.64002V25.48ZM50.2156 12.48C50.2156 11.2533 50.6022 10.3067 51.3756 9.64002C52.1489 8.97335 53.3222 8.64002 54.8956 8.64002V11.04C54.4156 11.6267 54.0956 12.0533 53.9356 12.32L54.2156 12.48C55.0422 11.2267 55.9222 10.28 56.8556 9.64002C57.7889 8.97335 58.8956 8.64002 60.1756 8.64002C62.4956 8.64002 64.0956 9.77335 64.9756 12.04C65.6422 10.9733 66.4956 10.1467 67.5356 9.56002C68.5756 8.94669 69.7489 8.64002 71.0556 8.64002C72.8689 8.64002 74.3089 9.30669 75.3756 10.64C76.4689 11.9467 77.0156 13.6267 77.0156 15.68V26.32C77.0156 27.3867 76.6022 28.16 75.7756 28.64C74.9756 29.12 73.7489 29.36 72.0956 29.36V16.08C72.0956 15.0933 71.8689 14.3067 71.4156 13.72C70.9889 13.1333 70.3222 12.84 69.4156 12.84C68.4556 12.84 67.6422 13.1733 66.9756 13.84C66.3356 14.48 66.0156 15.4933 66.0156 16.88V26.32C66.0156 27.3867 65.6156 28.16 64.8156 28.64C64.0422 29.12 62.8289 29.36 61.1756 29.36V16.08C61.1756 15.0667 60.9622 14.28 60.5356 13.72C60.1089 13.1333 59.4422 12.84 58.5356 12.84C57.4156 12.84 56.5622 13.2267 55.9756 14C55.4156 14.7467 55.1356 15.7733 55.1356 17.08V26.32C55.1356 27.3867 54.7222 28.16 53.8956 28.64C53.0956 29.12 51.8689 29.36 50.2156 29.36V12.48ZM81.4656 12.48C81.4656 11.2533 81.8522 10.3067 82.6256 9.64002C83.3989 8.97335 84.5722 8.64002 86.1456 8.64002V11.04C85.6656 11.6267 85.3456 12.0533 85.1856 12.32L85.4656 12.48C86.2922 11.2267 87.1722 10.28 88.1056 9.64002C89.0389 8.97335 90.1456 8.64002 91.4256 8.64002C93.7456 8.64002 95.3456 9.77335 96.2256 12.04C96.8922 10.9733 97.7456 10.1467 98.7856 9.56002C99.8256 8.94669 100.999 8.64002 102.305 8.64002C104.119 8.64002 105.559 9.30669 106.625 10.64C107.719 11.9467 108.265 13.6267 108.265 15.68V26.32C108.265 27.3867 107.852 28.16 107.025 28.64C106.225 29.12 104.999 29.36 103.345 29.36V16.08C103.345 15.0933 103.119 14.3067 102.665 13.72C102.239 13.1333 101.572 12.84 100.665 12.84C99.7056 12.84 98.8922 13.1733 98.2256 13.84C97.5856 14.48 97.2656 15.4933 97.2656 16.88V26.32C97.2656 27.3867 96.8656 28.16 96.0656 28.64C95.2922 29.12 94.0789 29.36 92.4256 29.36V16.08C92.4256 15.0667 92.2122 14.28 91.7856 13.72C91.3589 13.1333 90.6922 12.84 89.7856 12.84C88.6656 12.84 87.8122 13.2267 87.2256 14C86.6656 14.7467 86.3856 15.7733 86.3856 17.08V26.32C86.3856 27.3867 85.9722 28.16 85.1456 28.64C84.3456 29.12 83.1189 29.36 81.4656 29.36V12.48ZM116.035 6.76002C115.075 6.76002 114.275 6.48002 113.635 5.92002C113.022 5.33335 112.715 4.58669 112.715 3.68002C112.715 2.80002 113.022 2.08002 113.635 1.52002C114.275 0.933348 115.075 0.640015 116.035 0.640015C116.995 0.640015 117.782 0.933348 118.395 1.52002C119.035 2.08002 119.355 2.80002 119.355 3.68002C119.355 4.58669 119.035 5.33335 118.395 5.92002C117.782 6.48002 116.995 6.76002 116.035 6.76002ZM113.515 11.68C113.515 10.5867 113.929 9.81335 114.755 9.36002C115.582 8.88002 116.835 8.64002 118.515 8.64002V26.32C118.515 27.3867 118.102 28.16 117.275 28.64C116.449 29.12 115.195 29.36 113.515 29.36V11.68ZM132.235 29.36C130.075 29.36 128.475 28.7333 127.435 27.48C126.395 26.2267 125.875 24.6133 125.875 22.64V12.72H121.755C121.755 11.4667 121.995 10.5333 122.475 9.92002C122.955 9.30669 123.595 9.00002 124.395 9.00002H125.955V5.68002C125.955 4.58669 126.355 3.81335 127.155 3.36002C127.955 2.88002 129.169 2.64002 130.795 2.64002V9.00002H136.115C136.115 10.3333 135.862 11.2933 135.355 11.88C134.849 12.44 134.035 12.72 132.915 12.72H130.875V22.44C130.875 23.3733 131.049 24.04 131.395 24.44C131.769 24.84 132.395 25.04 133.275 25.04C134.209 25.04 135.142 24.7867 136.075 24.28C136.342 24.52 136.555 24.8267 136.715 25.2C136.875 25.5467 136.955 25.9067 136.955 26.28C136.955 27.08 136.542 27.8 135.715 28.44C134.889 29.0533 133.729 29.36 132.235 29.36Z" fill="black"/>
    <path d="M143.003 29.36C142.123 29.36 141.377 29.08 140.763 28.52C140.177 27.9333 139.883 27.2 139.883 26.32C139.883 25.44 140.177 24.7067 140.763 24.12C141.377 23.5067 142.123 23.2 143.003 23.2C143.857 23.2 144.59 23.5067 145.203 24.12C145.843 24.7067 146.163 25.44 146.163 26.32C146.163 27.1733 145.843 27.8933 145.203 28.48C144.59 29.0667 143.857 29.36 143.003 29.36Z" fill="#4173F3"/>
    </g>
    <defs>
    <clipPath id="clip0_66_3">
    <rect width="147" height="30" fill="white"/>
    </clipPath>
    </defs>
</svg>    