<svg width="644" height="644" viewBox="0 0 644 644" fill="none" xmlns="http://www.w3.org/2000/svg">
    <path d="M321.76 575.937C461.215 575.937 574.265 462.887 574.265 323.432C574.265 183.977 461.215 70.927 321.76 70.927C182.305 70.927 69.255 183.977 69.255 323.432C69.255 462.887 182.305 575.937 321.76 575.937Z" fill="white"/>
    <path d="M578.325 472.558L424.574 202.068L89.241 501H545.792L578.325 472.558Z" fill="#8FC8E5"/>
    <path d="M97.932 479.529L129.241 501H504.229L531.669 460.322L326.804 110.609L85.792 450.963L97.932 479.529Z" fill="#7FCEFF"/>
    <path d="M104.932 500.529L105.813 501H525.347L530.791 493.041L178.574 286.207L79.0901 439.683L104.932 500.529Z" fill="#C5ECFF"/>
    <path d="M384.574 225.609C384.574 225.609 375.24 208.942 357.24 205.609C339.24 202.275 307.574 194.942 307.574 194.942C307.574 194.942 289.574 194.276 279.908 197.609C270.24 200.941 234.908 212.609 234.908 212.609C234.908 212.609 228.574 218.609 224.908 225.609C221.24 232.609 209.573 252.275 209.573 252.275C209.573 252.275 208.908 251.811 201.908 260.211C194.908 268.611 179.824 284.588 179.824 284.588L179.158 285.797L290.574 393.725L342.959 385.142L355.763 371.752L370.763 373.963L386.138 376.713L381.638 363.588L400.242 331.275L404.242 281.275L401.909 261.441L399.075 248.109L390.242 233.275L384.574 225.609Z" fill="#905C22"/>
    <path d="M70.074 501.275C70.074 501.275 157.574 394.775 176.574 308.93C194.074 342.275 231.908 369.768 231.908 369.768C231.908 369.768 245.074 366.9 259.908 338.511C274.574 394.4 321.449 501.275 321.449 501.275H70.074Z" fill="#1D0C0F"/>
    <path d="M100.49 497.793C100.49 497.793 125.532 476.025 140.532 434.525C140.532 434.525 178.053 453.9 198.553 454.4L206.065 434.337L185.569 397.306L189.073 366.79C189.073 366.79 232.04 435.892 292.055 430.337L320.969 501.275H98.074L100.49 497.793Z" fill="#925826"/>
    <path d="M166.66 498.5L168.723 481.25L239.085 443.459L249.522 421.18C249.522 421.18 264.407 432.157 292.924 430.594L321.449 501H165.451L166.66 498.5Z" fill="#E6DBD2"/>
    <path d="M341.074 261.941C341.074 261.941 353.408 262.941 365.241 254.441" stroke="#4D4B45" stroke-miterlimit="10"/>
    <path d="M465.915 347.539C472.506 362.679 453.698 373.025 448.198 379.361C431.49 384.109 426.49 379.359 419.698 380.65C412.906 381.941 409.26 381.62 397.198 387.275C373.573 399.525 364.323 395.775 358.073 394.025C351.823 392.275 344.369 383.181 344.369 383.181C344.369 383.181 351.782 371.941 354.907 372.066C358.032 372.191 357.795 369.127 371.948 374.15C386.1 379.172 399.011 378.9 399.011 378.9L444.408 358.275L465.915 347.539Z" fill="#202120" stroke="#7E8580" stroke-miterlimit="10"/>
    <path d="M342.542 385.941C342.542 385.941 350.239 369.941 361.573 371.941C372.907 373.941 377.24 381.607 411.907 380.275C446.573 378.941 472.907 338.275 472.907 338.275C472.907 338.275 467.906 324.609 465.573 324.609C463.24 324.609 446.573 320.941 445.907 319.609C445.24 318.274 438.907 310.275 455.24 299.275C471.573 288.275 471.907 293.607 472.907 292.275C472.907 292.275 418.24 275.836 404.907 255.054C391.573 234.275 390.906 229.941 384.573 225.609C384.573 225.609 400.24 251.836 398.907 255.054C398.907 255.054 386.907 234.609 369.907 225.609C369.907 225.609 359.24 224.941 370.907 236.941L394.907 258.609C394.907 258.609 403.239 266.015 401.573 275.478C399.907 284.941 397.908 288.275 399.908 292.275C399.908 292.275 397.574 299.607 395.574 302.275C393.574 304.941 398.574 322.941 395.574 324.941C392.574 326.941 400.574 330.275 386.908 348.941C373.241 367.609 384.241 368.941 382.908 374.941C382.908 374.941 382.658 377.441 366.074 371.275C356.824 367.191 350.324 374.191 350.324 374.191L342.542 385.941Z" fill="#E5D9CE"/>
    <path d="M475.741 334.275C475.741 334.275 484.408 313.607 487.408 309.775C490.408 305.941 493.24 298.941 483.074 295.609C472.908 292.275 472.908 292.275 472.908 292.275C472.908 292.275 464.407 290.266 457.074 296.941C449.741 303.617 443.741 310.609 443.741 310.609C443.741 310.609 441.184 316.771 446.629 320.106C452.074 323.441 463.908 325.441 463.908 325.441L468.241 332.275L472.079 339.496L475.741 334.275Z" fill="black" stroke="#7E8580" stroke-miterlimit="10"/>
    <path d="M343.574 370.275V334.275C343.574 334.275 319.574 306.025 311.574 290.025C303.574 274.025 296.074 217.775 296.074 217.775C296.074 217.775 274.824 211.275 261.824 222.275L293.979 263.525C293.979 263.525 294.729 317.025 302.027 325.525C309.324 334.025 331.027 339.275 333.549 346.275C336.073 353.275 343.574 370.275 343.574 370.275Z" fill="#B58334"/>
    <path d="M277.908 245.941C289.241 255.609 295.574 268.94 295.574 268.94C295.574 268.94 288.908 311.275 301.24 326.275C313.574 341.275 321.908 324.609 334.908 350.275C353.908 402.941 335.574 414.941 300.574 423.941C265.574 432.941 229.908 399.941 229.908 399.941C229.908 399.941 186.908 357.609 178.574 346.275C170.24 334.941 178.574 286.275 178.574 286.275" fill="#996723"/>
    <path d="M252.908 224.94C252.908 224.94 189.575 265.275 176.908 289.609C176.908 289.609 177.574 320.275 183.241 336.941C188.908 353.609 200.575 349.941 205.908 358.941C211.241 367.941 234.574 417.275 285.241 416.609C335.908 415.941 326.574 379.609 307.574 364.609C288.574 349.609 270.24 332.609 268.574 322.275C266.908 311.941 285.908 300.609 273.241 277.609C260.574 254.609 249.907 254.275 257.574 246.94C265.241 239.609 267.908 233.607 252.908 224.94Z" fill="#A9742F"/>
    <path d="M203.574 309.275V357.275C203.574 357.275 217.824 377.775 230.824 385.275C243.824 392.775 267.449 399.775 270.449 385.275C273.449 370.775 258.643 359.275 258.643 359.275C258.643 359.275 247.541 338.275 249.041 324.275C250.541 310.275 256.557 298.775 256.557 298.775L226.815 279.275L203.574 309.275Z" fill="#B88333"/>
    <path d="M232.074 273.775L257.074 289.525C257.074 289.525 261.324 285.025 253.824 279.275C246.324 273.525 238.574 265.525 240.324 262.775C242.074 260.025 231.574 260.525 232.074 273.775Z" fill="#B88333"/>
    <path d="M245.164 263.978C245.164 263.978 258.073 268.895 252.573 260.21C247.073 251.523 247.573 256.44 247.573 256.44L245.164 263.978Z" fill="#B88333"/>
    <path d="M333.574 264.775C333.574 264.775 349.449 255.4 355.324 253.025C361.199 250.65 364.699 251.65 370.324 251.025C375.949 250.4 374.324 240.775 358.324 237.275C342.324 233.775 345.074 245.025 339.824 249.525C334.574 254.025 336.074 260.525 333.574 264.775Z" fill="#B78036"/>
    <path d="M343.074 265.4C345.096 264.385 347.145 263.514 349.203 262.677C351.255 261.827 353.326 261.051 355.377 260.24C357.44 259.462 359.488 258.657 361.521 257.833C362.532 257.408 363.543 256.987 364.523 256.502C365.507 256.024 366.472 255.516 367.325 254.774C366.814 255.805 365.924 256.602 365.051 257.33C364.152 258.039 363.198 258.67 362.214 259.231C360.253 260.375 358.186 261.28 356.098 262.104C353.994 262.892 351.868 263.597 349.696 264.152C347.526 264.717 345.328 265.18 343.074 265.4Z" fill="black"/>
    <path d="M363.646 256.974C365.39 258.042 366.937 259.222 368.451 260.501C369.951 261.779 371.363 263.156 372.658 264.631C375.244 267.575 377.377 270.956 378.575 274.651C377.062 271.075 374.689 267.963 371.935 265.323C370.556 264.001 369.077 262.789 367.528 261.682C365.986 260.587 364.341 259.554 362.705 258.739L363.646 256.974Z" fill="black"/>
    <path d="M289.265 501L509.765 500.5L421.765 565L333.783 582.5L289.265 501Z" fill="#C5ECFF"/>
    <path d="M363.976 257.391C360.16 259.496 354.857 261.511 351.804 262.601C351.334 263.726 351.075 264.958 351.075 266.253C351.075 271.499 355.328 275.753 360.575 275.753C365.822 275.753 370.075 271.499 370.075 266.253C370.074 262.207 367.539 258.76 363.976 257.391Z" fill="black"/>
    <path d="M321.449 501L358.932 582.5L133.265 540.432L165.451 501H321.449Z" fill="#E6DBD2"/>
    <path d="M367.083 264.667C366.939 263.642 364.466 263.143 361.56 263.552C358.654 263.962 356.415 265.125 356.56 266.151C356.704 267.176 359.177 267.675 362.083 267.265C364.989 266.856 367.228 265.692 367.083 264.667Z" fill="white"/>
    <path d="M321.931 5.90302C147.224 5.90302 5.59692 147.53 5.59692 322.237C5.59692 496.943 147.224 638.571 321.931 638.571C496.638 638.571 638.265 496.943 638.265 322.237C638.265 147.531 496.638 5.90302 321.931 5.90302ZM321.931 565.571C187.541 565.571 78.5969 456.627 78.5969 322.237C78.5969 187.847 187.541 78.903 321.931 78.903C456.321 78.903 565.265 187.847 565.265 322.237C565.265 456.627 456.32 565.571 321.931 565.571Z" fill="black"/>
    <path d="M321.76 639.005C496.598 639.005 638.333 497.27 638.333 322.432C638.333 147.594 496.598 5.85901 321.76 5.85901C146.922 5.85901 5.18701 147.594 5.18701 322.432C5.18701 497.27 146.922 639.005 321.76 639.005Z" stroke="#707070" stroke-width="10" stroke-miterlimit="10"/>
    <path d="M321.76 570.434C458.728 570.434 569.762 459.4 569.762 322.432C569.762 185.464 458.728 74.43 321.76 74.43C184.792 74.43 73.7581 185.464 73.7581 322.432C73.7581 459.4 184.792 570.434 321.76 570.434Z" stroke="#A3A3A3" stroke-width="10" stroke-miterlimit="10"/>
    <path d="M236.72 66.534C239.074 67.251 242.212 67.415 245.282 66.551C249.834 65.268 251.816 62.114 250.836 58.635C249.942 55.465 247.568 54.091 242.423 53.664C236.221 53.204 231.906 51.218 230.552 46.411C229.038 41.04 232.364 35.796 239.064 33.909C242.542 32.929 245.381 33.012 247.109 33.463L246.905 37.441C245.643 37.079 243.068 36.755 239.949 37.635C235.243 38.961 234.246 42.279 234.909 44.632C235.817 47.855 238.361 48.849 243.637 49.35C250.102 49.957 253.81 51.948 255.237 57.011C256.737 62.331 254.162 68.08 246.029 70.372C242.705 71.31 238.786 71.31 236.598 70.601L236.72 66.534Z" fill="white"/>
    <path d="M261.858 28.997L265.335 49.965C266.638 57.829 270.707 60.601 275.425 59.819C280.614 58.957 283.449 54.933 282.162 47.174L278.685 26.207L283.298 25.441L286.723 46.095C288.522 56.948 283.538 62.298 275.884 63.567C268.65 64.766 262.52 61.581 260.695 50.573L257.244 29.761L261.858 28.997Z" fill="white"/>
    <path d="M325.689 43.264C325.288 38.278 324.806 32.233 324.687 27.824L324.581 27.827C323.419 32.004 322.106 36.558 320.434 41.545L314.583 59.083L311.078 59.178L304.775 42.288C302.937 37.234 301.433 32.705 300.309 28.483L300.203 28.485C300.218 32.949 300.113 38.905 299.94 44.331L299.399 59.706L294.991 59.825L296.52 23.962L302.416 23.802L308.991 40.951C310.597 45.319 311.872 49.217 312.929 52.909L313.034 52.907C313.892 49.269 315.061 45.304 316.532 40.747L322.438 23.261L328.333 23.102L331.531 58.839L326.964 58.962L325.689 43.264Z" fill="white"/>
    <path d="M369.292 47.495C369.671 42.507 370.136 36.459 370.704 32.085L370.599 32.072C368.8 36.018 366.795 40.312 364.368 44.98L355.858 61.397L352.38 60.944L348.78 43.276C347.751 37.998 346.969 33.288 346.516 28.942L346.411 28.928C345.73 33.342 344.7 39.209 343.686 44.543L340.758 59.649L336.385 59.081L343.475 23.885L349.325 24.645L353.153 42.611C354.061 47.177 354.714 51.227 355.182 55.039L355.287 55.054C356.701 51.594 358.473 47.858 360.636 43.584L369.191 27.227L375.041 27.987L372.641 63.792L368.109 63.204L369.292 47.495Z" fill="white"/>
    <path d="M391.323 31.896L383.14 66.757L378.588 65.689L386.772 30.827L391.323 31.896Z" fill="white"/>
    <path d="M406.365 40.064L395.966 36.826L397.135 33.072L422.449 40.955L421.28 44.708L410.829 41.454L401.351 71.892L396.886 70.502L406.365 40.064Z" fill="white"/>
    <path d="M105.292 472.975C106.928 474.563 108.934 476.743 111.156 479.757C113.886 483.463 115.026 486.814 114.745 489.68C114.51 492.247 113.129 494.795 110.543 496.7C107.915 498.638 105.275 499.387 102.688 499.034C99.0839 498.564 95.6569 496.169 92.9579 492.507C92.1319 491.387 91.4129 490.32 90.9929 489.3L79.3599 497.875L76.5959 494.126L105.292 472.975ZM94.0519 487.045C94.4399 488.023 95.1159 489.12 96.0359 490.369C99.3709 494.893 103.644 495.999 107.565 493.109C111.443 490.251 111.263 486.128 108.246 482.035C107.04 480.397 105.989 479.243 105.341 478.724L94.0519 487.045Z" fill="white"/>
    <path d="M104.614 511.86L93.6579 516.64L90.4429 513.05L125.543 498.152L129.258 502.299L110.588 535.547L107.267 531.837L113.152 521.394L104.614 511.86ZM115.256 518.287L120.601 508.685C121.821 506.515 123.059 504.687 124.258 502.896L124.186 502.816C122.274 503.81 120.241 504.911 118.106 505.817L107.969 510.149L115.256 518.287Z" fill="white"/>
    <path d="M144.164 517.324L119.356 543.529L115.935 540.291L140.743 514.086L144.164 517.324Z" fill="white"/>
    <path d="M126.694 550.535L149.135 522.272L153.16 525.468L150.821 546.927C150.246 551.871 149.559 556.18 148.561 560.106L148.72 560.164C151.381 556.123 154.028 552.618 157.524 548.215L166.914 536.391L170.353 539.121L147.91 567.384L144.221 564.453L146.635 542.987C147.161 538.277 147.839 533.549 148.885 529.39L148.727 529.331C146.106 533.061 143.451 536.491 139.721 541.187L130.131 553.264L126.694 550.535Z" fill="white"/>
    <path d="M179.635 549.773L170.336 543.943L172.44 540.586L195.076 554.779L192.972 558.135L183.627 552.276L166.563 579.494L162.571 576.991L179.635 549.773Z" fill="white"/>
    <path d="M213.211 603.114C212.689 601.775 212.235 600.408 211.52 598.574C207.538 599.925 203.906 599.677 200.229 598.063C193.807 595.247 191.974 589.298 194.145 584.347C196.124 579.837 200.174 577.931 204.852 577.528L204.916 577.382C204.146 574.473 204.192 571.569 205.203 569.266C206.987 565.197 211.685 562.348 217.177 564.756C221.294 566.562 223.298 570.655 221.406 574.971C219.879 578.45 216.665 580.315 210.281 580.612L210.194 580.807C211.569 585.268 213.136 590.223 214.213 593.5C216.743 591.863 219.17 589.128 221.636 585.242L225.557 586.961C222.396 591.771 219.168 595.265 215.449 597.082C216.376 599.769 217.274 602.383 218.31 605.352L213.211 603.114ZM210.509 595.148C209.494 592.131 207.58 586.5 205.775 580.622C203.446 581.004 200.091 581.986 198.544 585.517C196.888 589.291 198.413 593.41 202.434 595.172C205.227 596.398 208.188 596.178 210.509 595.148ZM209.318 570.544C208.264 572.946 208.596 575.255 209.195 577.622C213.367 577.172 216.299 576.353 217.545 573.51C218.427 571.5 218.288 568.75 215.543 567.546C212.848 566.364 210.437 567.996 209.318 570.544Z" fill="white"/>
    <path d="M261.1 616.679C259.278 617.082 255.694 617.02 251.45 615.897C241.618 613.295 235.912 605.14 238.952 593.652C241.855 582.68 251.201 577.29 262.017 580.152C266.313 581.289 268.861 582.96 269.886 583.895L267.776 587.268C266.338 586.002 264.071 584.738 261.172 583.97C252.995 581.807 246.178 585.596 243.754 594.756C241.481 603.347 244.959 610.082 253.395 612.315C256.19 613.054 259.135 613.223 261.179 612.823L261.1 616.679Z" fill="white"/>
    <path d="M301.266 605.354C299.541 617.599 291.141 623.121 282.023 621.836C272.534 620.499 266.998 612.205 268.521 601.391C270.119 590.047 278.161 583.611 287.704 584.954C297.51 586.335 302.766 594.697 301.266 605.354ZM273.413 601.972C272.33 609.659 275.502 617.079 282.817 618.11C290.132 619.141 295.215 612.99 296.358 604.88C297.366 597.724 294.701 589.778 287.013 588.696C279.327 587.613 274.51 594.179 273.413 601.972Z" fill="white"/>
    <path d="M307.752 624.069L308.065 587.988L313.205 588.032L324.556 606.388C327.143 610.64 329.25 614.459 330.878 618.167L331.039 618.115C330.652 613.293 330.584 608.901 330.633 603.281L330.764 588.184L335.155 588.221L334.841 624.305L330.13 624.263L318.833 605.855C316.353 601.818 313.979 597.674 312.245 593.751L312.085 593.804C312.314 598.357 312.328 602.694 312.276 608.689L312.142 624.108L307.752 624.069Z" fill="white"/>
    <path d="M344.373 617.967C346.588 619.082 349.675 619.784 352.87 619.453C357.609 618.961 360.119 616.17 359.742 612.55C359.399 609.248 357.278 607.477 352.245 606.17C346.166 604.648 342.224 601.936 341.705 596.93C341.125 591.338 345.326 586.705 352.302 585.981C355.922 585.605 358.727 586.175 360.365 586.92L359.479 590.833C358.289 590.257 355.788 589.494 352.54 589.83C347.641 590.339 346.082 593.461 346.336 595.911C346.684 599.265 349.038 600.689 354.19 602.093C360.503 603.805 363.842 606.418 364.389 611.691C364.965 617.229 361.421 622.495 352.954 623.374C349.493 623.733 345.601 623.061 343.553 621.982L344.373 617.967Z" fill="white"/>
    <path d="M374.279 587.264L363.521 589.44L362.736 585.557L388.922 580.262L389.707 584.147L378.896 586.332L385.261 617.817L380.643 618.751L374.279 587.264Z" fill="white"/>
    <path d="M391.627 579.912C393.753 578.81 396.934 577.497 399.952 576.567C404.712 575.104 408.116 575.065 410.797 576.313C412.957 577.33 414.705 579.369 415.539 582.081C416.924 586.585 414.986 590.484 411.782 592.814L411.829 592.967C414.723 593.085 417.064 595.055 418.984 598.384C421.588 602.849 423.43 605.923 424.556 607.033L419.951 608.449C419.073 607.598 417.409 604.919 415.166 600.903C412.679 596.459 410.234 595.249 406.145 596.339L401.95 597.63L406.545 612.573L402.093 613.941L391.627 579.912ZM400.91 594.254L405.464 592.854C410.224 591.389 412.44 587.851 411.229 583.912C409.86 579.46 406.038 578.506 401.33 579.954C399.181 580.615 397.744 581.225 397.04 581.666L400.91 594.254Z" fill="white"/>
    <path d="M421.846 569.351L430.409 588.977C433.618 596.336 438.276 598.043 442.692 596.117C447.549 593.998 449.326 589.368 446.159 582.107L437.596 562.479L441.914 560.596L450.348 579.929C454.778 590.084 451.228 596.539 444.065 599.664C437.294 602.619 430.521 601.017 426.026 590.714L417.528 571.234L421.846 569.351Z" fill="white"/>
    <path d="M487.067 574.97C486.069 576.547 483.5 579.047 479.713 581.267C470.937 586.412 461.13 584.714 455.119 574.46C449.379 564.668 452.139 554.237 461.792 548.578C465.626 546.332 468.607 545.701 469.994 545.632L470.9 549.508C468.989 549.635 466.493 550.354 463.907 551.869C456.609 556.146 454.494 563.655 459.287 571.83C463.781 579.497 471.012 581.775 478.54 577.361C481.035 575.899 483.231 573.929 484.388 572.197L487.067 574.97Z" fill="white"/>
    <path d="M482.07 540.398L473.269 546.957L470.901 543.78L492.323 527.815L494.691 530.992L485.847 537.584L505.044 563.342L501.267 566.156L482.07 540.398Z" fill="white"/>
    <path d="M497.986 522.551L521.57 549.858L518.005 552.936L494.421 525.631L497.986 522.551Z" fill="white"/>
    <path d="M537.546 508.269C546.438 516.865 545.966 526.906 539.567 533.528C532.907 540.42 522.942 540.02 515.088 532.43C506.85 524.467 506.371 514.177 513.068 507.247C519.952 500.125 529.809 500.791 537.546 508.269ZM518.435 528.813C524.016 534.209 531.885 536.005 537.019 530.692C542.154 525.38 540.167 517.652 534.277 511.959C529.081 506.938 521.087 504.423 515.691 510.005C510.296 515.587 512.775 523.344 518.435 528.813Z" fill="white"/>
    <path d="M556.495 514.039L527.516 492.547L530.578 488.42L552.096 490.049C557.055 490.461 561.383 491.006 565.338 491.873L565.391 491.711C561.267 489.186 557.677 486.657 553.162 483.309L541.038 474.318L543.652 470.792L572.63 492.284L569.824 496.067L548.297 494.363C543.573 493.992 538.828 493.472 534.637 492.563L534.584 492.723C538.398 495.219 541.912 497.758 546.729 501.329L559.111 510.514L556.495 514.039Z" fill="white"/>
</svg>    