<svg width="557" height="391" viewBox="0 0 557 391" fill="none" xmlns="http://www.w3.org/2000/svg">
    <path d="M50.932 391L386.265 92L556.265 391H50.932Z" fill="#8FC8E5"/>
    <path d="M11.932 391L288.494 0.402954L517.265 391H11.932Z" fill="#7FCEFF"/>
    <path d="M346.265 115.334C346.265 115.334 336.931 98.667 318.931 95.334C300.931 92 269.265 84.667 269.265 84.667C269.265 84.667 251.265 84.001 241.599 87.334C231.931 90.666 196.599 102.334 196.599 102.334C196.599 102.334 190.265 108.334 186.599 115.334C182.931 122.334 171.264 142 171.264 142C171.264 142 170.599 141.537 163.599 149.936C156.599 158.335 141.515 174.313 141.515 174.313L140.849 175.522L252.265 283.45L304.65 274.867L317.453 261.477L332.453 263.688L347.828 266.438L343.328 253.313L361.932 221L365.932 171L363.599 151.166L360.765 137.834L351.932 123L346.265 115.334Z" fill="#905C22"/>
    <path d="M0.932007 391L140.265 176L506.265 391H0.932007Z" fill="#C5ECFF"/>
    <path d="M31.765 391C31.765 391 119.265 284.5 138.265 198.656C155.765 232 193.599 259.494 193.599 259.494C193.599 259.494 206.765 256.625 221.599 228.237C236.265 284.125 283.14 391 283.14 391H31.765Z" fill="#1D0C0F"/>
    <path d="M62.181 387.518C62.181 387.518 87.223 365.75 102.223 324.25C102.223 324.25 139.744 343.625 160.244 344.125L167.756 324.062L147.26 287.031L150.764 256.515C150.764 256.515 193.731 325.617 253.747 320.062L282.661 391H59.765L62.181 387.518Z" fill="#925826"/>
    <path d="M127.474 388.5L129.537 371.25L199.9 333.459L210.336 311.18C210.336 311.18 225.221 322.157 253.739 320.594L282.263 391H126.265L127.474 388.5Z" fill="#E6DBD2"/>
    <path d="M302.765 151.667C302.765 151.667 315.099 152.667 326.932 144.167" stroke="#4D4B45" stroke-miterlimit="10"/>
    <path d="M427.606 237.264C434.197 252.404 415.389 262.75 409.889 269.086C393.181 273.834 388.181 269.084 381.389 270.375C374.597 271.666 370.951 271.345 358.889 277C335.264 289.25 326.014 285.5 319.764 283.75C313.514 282 306.06 272.907 306.06 272.907C306.06 272.907 313.473 261.666 316.598 261.791C319.723 261.916 319.486 258.852 333.639 263.875C347.792 268.898 360.702 268.625 360.702 268.625L406.099 248L427.606 237.264Z" fill="#202120" stroke="#7E8580" stroke-miterlimit="10"/>
    <path d="M304.233 275.667C304.233 275.667 311.93 259.667 323.264 261.667C334.598 263.667 338.931 271.333 373.598 270C408.264 268.667 434.598 228 434.598 228C434.598 228 429.597 214.334 427.264 214.334C424.931 214.334 408.264 210.667 407.598 209.334C406.931 208 400.598 200 416.931 189C433.264 178 433.598 183.333 434.598 182C434.598 182 379.931 165.561 366.598 144.78C353.264 124 352.597 119.667 346.264 115.334C346.264 115.334 361.931 141.561 360.598 144.78C360.598 144.78 348.598 124.334 331.598 115.334C331.598 115.334 320.931 114.667 332.598 126.667L356.598 148.334C356.598 148.334 364.93 155.741 363.264 165.204C361.598 174.667 359.599 178 361.599 182C361.599 182 359.265 189.333 357.265 192C355.265 194.667 360.265 212.667 357.265 214.667C354.265 216.667 362.265 220 348.599 238.667C334.932 257.334 345.932 258.667 344.599 264.667C344.599 264.667 344.349 267.166 327.765 261C318.515 256.917 312.015 263.917 312.015 263.917L304.233 275.667Z" fill="#E5D9CE"/>
    <path d="M437.432 224C437.432 224 446.099 203.333 449.099 199.5C452.099 195.667 454.931 188.667 444.765 185.334C434.599 182 434.599 182 434.599 182C434.599 182 426.098 179.992 418.765 186.667C411.432 193.342 405.432 200.334 405.432 200.334C405.432 200.334 402.875 206.497 408.32 209.832C413.765 213.167 425.599 215.167 425.599 215.167L429.932 222L433.77 229.221L437.432 224Z" fill="black" stroke="#7E8580" stroke-miterlimit="10"/>
    <path d="M305.265 260V224C305.265 224 281.265 195.75 273.265 179.75C265.265 163.75 257.765 107.5 257.765 107.5C257.765 107.5 236.515 101 223.515 112L255.671 153.25C255.671 153.25 256.421 206.75 263.718 215.25C271.015 223.75 292.718 229 295.241 236C297.764 243 305.265 260 305.265 260Z" fill="#B58334"/>
    <path d="M239.599 135.667C250.932 145.334 257.265 158.666 257.265 158.666C257.265 158.666 250.599 201 262.931 216C275.265 231 283.599 214.334 296.599 240C315.599 292.667 297.265 304.666 262.265 313.666C227.265 322.666 191.599 289.666 191.599 289.666C191.599 289.666 148.599 247.334 140.265 236C131.931 224.666 140.265 176 140.265 176" fill="#996723"/>
    <path d="M214.599 114.666C214.599 114.666 151.266 155 138.599 179.334C138.599 179.334 139.265 210 144.932 226.666C150.599 243.334 162.266 239.666 167.599 248.666C172.932 257.666 196.265 307 246.932 306.334C297.599 305.666 288.265 269.334 269.265 254.334C250.265 239.334 231.931 222.334 230.265 212C228.599 201.666 247.599 190.334 234.932 167.334C222.265 144.334 211.598 144 219.265 136.666C226.932 129.334 229.599 123.333 214.599 114.666Z" fill="#A9742F"/>
    <path d="M165.265 199V247C165.265 247 179.515 267.5 192.515 275C205.515 282.5 229.14 289.5 232.14 275C235.14 260.5 220.335 249 220.335 249C220.335 249 209.233 228 210.733 214C212.233 200 218.249 188.5 218.249 188.5L188.507 169L165.265 199Z" fill="#B88333"/>
    <path d="M193.765 163.5L218.765 179.25C218.765 179.25 223.015 174.75 215.515 169C208.015 163.25 200.265 155.25 202.015 152.5C203.765 149.75 193.265 150.25 193.765 163.5Z" fill="#B88333"/>
    <path d="M206.855 153.703C206.855 153.703 219.764 158.62 214.264 149.935C208.764 141.249 209.264 146.166 209.264 146.166L206.855 153.703Z" fill="#B88333"/>
    <path d="M295.265 154.5C295.265 154.5 311.14 145.125 317.015 142.75C322.89 140.375 326.39 141.375 332.015 140.75C337.64 140.125 336.015 130.5 320.015 127C304.015 123.5 306.765 134.75 301.515 139.25C296.265 143.75 297.765 150.25 295.265 154.5Z" fill="#B78036"/>
    <path d="M304.765 155.125C306.787 154.111 308.837 153.24 310.894 152.403C312.946 151.553 315.017 150.777 317.068 149.966C319.131 149.188 321.179 148.383 323.212 147.559C324.222 147.134 325.234 146.713 326.213 146.228C327.198 145.75 328.163 145.242 329.015 144.5C328.505 145.532 327.614 146.329 326.741 147.056C325.841 147.765 324.888 148.396 323.904 148.958C321.943 150.101 319.875 151.006 317.787 151.831C315.684 152.619 313.557 153.324 311.385 153.878C309.217 154.442 307.019 154.905 304.765 155.125Z" fill="black"/>
    <path d="M325.336 146.699C327.081 147.767 328.628 148.947 330.141 150.226C331.641 151.504 333.053 152.881 334.348 154.356C336.934 157.3 339.067 160.681 340.265 164.375C338.752 160.799 336.379 157.687 333.626 155.047C332.247 153.725 330.767 152.513 329.218 151.407C327.676 150.312 326.032 149.279 324.395 148.463L325.336 146.699Z" fill="black"/>
    <path d="M325.666 147.116C321.85 149.221 316.547 151.236 313.494 152.326C313.025 153.451 312.765 154.683 312.765 155.978C312.765 161.224 317.018 165.478 322.265 165.478C327.512 165.478 331.765 161.224 331.765 155.978C331.765 151.932 329.23 148.485 325.666 147.116Z" fill="black"/>
    <path d="M323.78 156.982C326.686 156.572 328.924 155.409 328.779 154.384C328.635 153.358 326.162 152.859 323.256 153.269C320.351 153.679 318.113 154.843 318.257 155.868C318.402 156.893 320.875 157.392 323.78 156.982Z" fill="white"/>
</svg>    